<?xml version="1.0" encoding="UTF-8" standalone="no"?>
<!DOCTYPE svg PUBLIC "-//W3C//DTD SVG 1.1//EN" "http://www.w3.org/Graphics/SVG/1.1/DTD/svg11.dtd">
<svg width="100%" height="100%" viewBox="0 0 256 256" version="1.1" xmlns="http://www.w3.org/2000/svg" xmlns:xlink="http://www.w3.org/1999/xlink" xml:space="preserve" xmlns:serif="http://www.serif.com/" style="fill-rule:evenodd;clip-rule:evenodd;stroke-linecap:round;stroke-linejoin:round;stroke-miterlimit:1.5;">
    <g id="Square">
        <path d="M193.3,49.946L49.936,49.946L49.936,170.19L199.753,170.19L199.753,66.2" style="fill:none;stroke:white;stroke-width:7.9px;"/>
    </g>
    <g id="Pipet" transform="matrix(0.707107,-0.707107,0.707107,0.707107,19.798,79.2914)">
        <g transform="matrix(1,0,0,1,0,1.14274)">
            <path d="M176.99,100.882L86.027,100.882C81.503,100.882 77.835,104.55 77.835,109.074C77.835,109.075 77.835,109.076 77.835,109.077C77.835,111.106 78.641,113.053 80.076,114.488C81.511,115.923 83.458,116.729 85.487,116.729C114.487,116.729 176.99,116.729 176.99,116.729L176.99,100.882Z" style="fill:none;stroke:white;stroke-width:7.9px;"/>
        </g>
        <path d="M78.856,114.392C78.856,114.392 70.355,115.229 70.392,110.282C70.429,105.227 78.93,106.014 78.93,106.014" style="fill:none;stroke:white;stroke-width:7.9px;"/>
        <g transform="matrix(1,0,0,1,0.571369,1.71411)">
            <path d="M187.525,98.918C187.525,95.844 185.029,93.347 181.954,93.347C178.88,93.347 176.383,95.844 176.383,98.918L176.383,117.631C176.383,120.705 178.88,123.201 181.954,123.201C185.029,123.201 187.525,120.705 187.525,117.631L187.525,116.269C192.436,115.022 198.753,118.265 198.908,108.247C199.06,98.48 192.487,101.714 187.525,100.306L187.525,98.918Z" style="fill:none;stroke:white;stroke-width:7.9px;"/>
        </g>
    </g>
</svg>
