<?xml version="1.0" encoding="UTF-8" standalone="no"?>
<!DOCTYPE svg PUBLIC "-//W3C//DTD SVG 1.1//EN" "http://www.w3.org/Graphics/SVG/1.1/DTD/svg11.dtd">
<svg width="100%" height="100%" viewBox="0 0 256 256" version="1.1" xmlns="http://www.w3.org/2000/svg" xmlns:xlink="http://www.w3.org/1999/xlink" xml:space="preserve" xmlns:serif="http://www.serif.com/" style="fill-rule:evenodd;clip-rule:evenodd;stroke-linecap:round;stroke-linejoin:round;stroke-miterlimit:1.5;">
    <g id="Keyboard">
        <g transform="matrix(1.12541,0,0,0.902711,-10.1719,-9.62341)">
            <rect x="41.246" y="44.236" width="165.161" height="111.953" style="fill:none;stroke:white;stroke-width:7.74px;"/>
        </g>
        <g transform="matrix(1,0,0,0.64486,-5.17803,43.4843)">
            <path d="M171.589,108.114C171.589,105.478 170.209,103.337 168.509,103.337L100.748,103.337C99.048,103.337 97.668,105.478 97.668,108.114L97.668,117.666C97.668,120.302 99.048,122.443 100.748,122.443L168.509,122.443C170.209,122.443 171.589,120.302 171.589,117.666L171.589,108.114Z" style="fill:white;"/>
        </g>
        <g transform="matrix(0.246377,0,0,0.64486,22.0034,43.3057)">
            <path d="M171.589,108.114C171.589,105.478 165.988,103.337 159.088,103.337L110.17,103.337C103.27,103.337 97.668,105.478 97.668,108.114L97.668,117.666C97.668,120.302 103.27,122.443 110.17,122.443L159.088,122.443C165.988,122.443 171.589,120.302 171.589,117.666L171.589,108.114Z" style="fill:white;"/>
        </g>
        <g transform="matrix(0.246377,0,0,0.64486,45.0034,43.3057)">
            <path d="M171.589,108.114C171.589,105.478 165.988,103.337 159.088,103.337L110.17,103.337C103.27,103.337 97.668,105.478 97.668,108.114L97.668,117.666C97.668,120.302 103.27,122.443 110.17,122.443L159.088,122.443C165.988,122.443 171.589,120.302 171.589,117.666L171.589,108.114Z" style="fill:white;"/>
        </g>
        <g transform="matrix(0.565217,0,0,0.64486,-9.13724,25.3057)">
            <path d="M171.589,108.114C171.589,105.478 169.147,103.337 166.14,103.337L103.118,103.337C100.11,103.337 97.668,105.478 97.668,108.114L97.668,117.666C97.668,120.302 100.11,122.443 103.118,122.443L166.14,122.443C169.147,122.443 171.589,120.302 171.589,117.666L171.589,108.114Z" style="fill:white;"/>
        </g>
        <g transform="matrix(0.241546,0,0,0.64486,171.21,43.3057)">
            <path d="M171.589,108.114C171.589,105.478 165.876,103.337 158.838,103.337L110.42,103.337C103.382,103.337 97.668,105.478 97.668,108.114L97.668,117.666C97.668,120.302 103.382,122.443 110.42,122.443L158.838,122.443C165.876,122.443 171.589,120.302 171.589,117.666L171.589,108.114Z" style="fill:white;"/>
        </g>
        <g transform="matrix(0.248792,0,0,0.64486,146.467,43.3057)">
            <path d="M171.589,108.114C171.589,105.478 166.042,103.337 159.209,103.337L110.048,103.337C103.216,103.337 97.668,105.478 97.668,108.114L97.668,117.666C97.668,120.302 103.216,122.443 110.048,122.443L159.209,122.443C166.042,122.443 171.589,120.302 171.589,117.666L171.589,108.114Z" style="fill:white;"/>
        </g>
        <g transform="matrix(0.565217,0,0,0.64486,115.671,25.3057)">
            <path d="M171.589,108.114C171.589,105.478 169.147,103.337 166.14,103.337L103.118,103.337C100.11,103.337 97.668,105.478 97.668,108.114L97.668,117.666C97.668,120.302 100.11,122.443 103.118,122.443L166.14,122.443C169.147,122.443 171.589,120.302 171.589,117.666L171.589,108.114Z" style="fill:white;"/>
        </g>
        <g transform="matrix(0.190821,0,0,0.64486,74.2378,25.3057)">
            <path d="M171.589,108.114C171.589,105.478 164.357,103.337 155.448,103.337L113.809,103.337C104.901,103.337 97.668,105.478 97.668,108.114L97.668,117.666C97.668,120.302 104.901,122.443 113.809,122.443L155.448,122.443C164.357,122.443 171.589,120.302 171.589,117.666L171.589,108.114Z" style="fill:white;"/>
        </g>
        <g transform="matrix(0.18599,0,0,0.64486,133.103,25.3057)">
            <path d="M171.589,108.114C171.589,105.478 164.169,103.337 155.029,103.337L114.229,103.337C105.089,103.337 97.668,105.478 97.668,108.114L97.668,117.666C97.668,120.302 105.089,122.443 114.229,122.443L155.029,122.443C164.169,122.443 171.589,120.302 171.589,117.666L171.589,108.114Z" style="fill:white;"/>
        </g>
        <g transform="matrix(0.188406,0,0,0.64486,93.4737,25.3057)">
            <path d="M171.589,108.114C171.589,105.478 164.264,103.337 155.241,103.337L114.016,103.337C104.994,103.337 97.668,105.478 97.668,108.114L97.668,117.666C97.668,120.302 104.994,122.443 114.016,122.443L155.241,122.443C164.264,122.443 171.589,120.302 171.589,117.666L171.589,108.114Z" style="fill:white;"/>
        </g>
        <g transform="matrix(0.195652,0,0,0.64486,111.766,25.3057)">
            <path d="M171.589,108.114C171.589,105.478 164.535,103.337 155.847,103.337L113.411,103.337C104.722,103.337 97.668,105.478 97.668,108.114L97.668,117.666C97.668,120.302 104.722,122.443 113.411,122.443L155.847,122.443C164.535,122.443 171.589,120.302 171.589,117.666L171.589,108.114Z" style="fill:white;"/>
        </g>
        <g transform="matrix(0.190821,0,0,0.64486,83.2378,8.30572)">
            <path d="M171.589,108.114C171.589,105.478 164.357,103.337 155.448,103.337L113.809,103.337C104.901,103.337 97.668,105.478 97.668,108.114L97.668,117.666C97.668,120.302 104.901,122.443 113.809,122.443L155.448,122.443C164.357,122.443 171.589,120.302 171.589,117.666L171.589,108.114Z" style="fill:white;"/>
        </g>
        <g transform="matrix(0.18599,0,0,0.64486,142.103,8.30572)">
            <path d="M171.589,108.114C171.589,105.478 164.169,103.337 155.029,103.337L114.229,103.337C105.089,103.337 97.668,105.478 97.668,108.114L97.668,117.666C97.668,120.302 105.089,122.443 114.229,122.443L155.029,122.443C164.169,122.443 171.589,120.302 171.589,117.666L171.589,108.114Z" style="fill:white;"/>
        </g>
        <g transform="matrix(0.18599,0,0,0.64486,161.103,8.30572)">
            <path d="M171.589,108.114C171.589,105.478 164.169,103.337 155.029,103.337L114.229,103.337C105.089,103.337 97.668,105.478 97.668,108.114L97.668,117.666C97.668,120.302 105.089,122.443 114.229,122.443L155.029,122.443C164.169,122.443 171.589,120.302 171.589,117.666L171.589,108.114Z" style="fill:white;"/>
        </g>
        <g transform="matrix(0.18599,0,0,0.64486,174.103,-9.69428)">
            <path d="M171.589,108.114C171.589,105.478 164.169,103.337 155.029,103.337L114.229,103.337C105.089,103.337 97.668,105.478 97.668,108.114L97.668,117.666C97.668,120.302 105.089,122.443 114.229,122.443L155.029,122.443C164.169,122.443 171.589,120.302 171.589,117.666L171.589,108.114Z" style="fill:white;"/>
        </g>
        <g transform="matrix(0.198068,0,0,1.57944,178.03,-106.127)">
            <path d="M171.589,105.655C171.589,104.376 163.308,103.337 153.109,103.337L116.149,103.337C105.949,103.337 97.668,104.376 97.668,105.655L97.668,120.125C97.668,121.404 105.949,122.443 116.149,122.443L153.109,122.443C163.308,122.443 171.589,121.404 171.589,120.125L171.589,105.655Z" style="fill:white;"/>
        </g>
        <g transform="matrix(0.188406,0,0,0.64486,102.474,8.30572)">
            <path d="M171.589,108.114C171.589,105.478 164.264,103.337 155.241,103.337L114.016,103.337C104.994,103.337 97.668,105.478 97.668,108.114L97.668,117.666C97.668,120.302 104.994,122.443 114.016,122.443L155.241,122.443C164.264,122.443 171.589,120.302 171.589,117.666L171.589,108.114Z" style="fill:white;"/>
        </g>
        <g transform="matrix(0.195652,0,0,0.64486,120.766,8.30572)">
            <path d="M171.589,108.114C171.589,105.478 164.535,103.337 155.847,103.337L113.411,103.337C104.722,103.337 97.668,105.478 97.668,108.114L97.668,117.666C97.668,120.302 104.722,122.443 113.411,122.443L155.847,122.443C164.535,122.443 171.589,120.302 171.589,117.666L171.589,108.114Z" style="fill:white;"/>
        </g>
        <g transform="matrix(0.398551,0,0,0.64486,7.94919,8.30572)">
            <path d="M171.589,108.114C171.589,105.478 168.126,103.337 163.861,103.337L105.396,103.337C101.131,103.337 97.668,105.478 97.668,108.114L97.668,117.666C97.668,120.302 101.131,122.443 105.396,122.443L163.861,122.443C168.126,122.443 171.589,120.302 171.589,117.666L171.589,108.114Z" style="fill:white;"/>
        </g>
        <g transform="matrix(0.398551,0,0,0.64486,142.578,-26.8692)">
            <path d="M171.589,108.114C171.589,105.478 168.126,103.337 163.861,103.337L105.396,103.337C101.131,103.337 97.668,105.478 97.668,108.114L97.668,117.666C97.668,120.302 101.131,122.443 105.396,122.443L163.861,122.443C168.126,122.443 171.589,120.302 171.589,117.666L171.589,108.114Z" style="fill:white;"/>
        </g>
        <g transform="matrix(0.195652,0,0,0.64486,63.766,8.30572)">
            <path d="M171.589,108.114C171.589,105.478 164.535,103.337 155.847,103.337L113.411,103.337C104.722,103.337 97.668,105.478 97.668,108.114L97.668,117.666C97.668,120.302 104.722,122.443 113.411,122.443L155.847,122.443C164.535,122.443 171.589,120.302 171.589,117.666L171.589,108.114Z" style="fill:white;"/>
        </g>
        <g transform="matrix(0.190821,0,0,0.64486,67.2378,-26.6943)">
            <path d="M171.589,108.114C171.589,105.478 164.357,103.337 155.448,103.337L113.809,103.337C104.901,103.337 97.668,105.478 97.668,108.114L97.668,117.666C97.668,120.302 104.901,122.443 113.809,122.443L155.448,122.443C164.357,122.443 171.589,120.302 171.589,117.666L171.589,108.114Z" style="fill:white;"/>
        </g>
        <g transform="matrix(0.18599,0,0,0.64486,126.103,-26.6943)">
            <path d="M171.589,108.114C171.589,105.478 164.169,103.337 155.029,103.337L114.229,103.337C105.089,103.337 97.668,105.478 97.668,108.114L97.668,117.666C97.668,120.302 105.089,122.443 114.229,122.443L155.029,122.443C164.169,122.443 171.589,120.302 171.589,117.666L171.589,108.114Z" style="fill:white;"/>
        </g>
        <g transform="matrix(0.18599,0,0,0.64486,145.103,-26.6943)">
            <path d="M171.589,108.114C171.589,105.478 164.169,103.337 155.029,103.337L114.229,103.337C105.089,103.337 97.668,105.478 97.668,108.114L97.668,117.666C97.668,120.302 105.089,122.443 114.229,122.443L155.029,122.443C164.169,122.443 171.589,120.302 171.589,117.666L171.589,108.114Z" style="fill:white;"/>
        </g>
        <g transform="matrix(0.188406,0,0,0.64486,86.4737,-26.6943)">
            <path d="M171.589,108.114C171.589,105.478 164.264,103.337 155.241,103.337L114.016,103.337C104.994,103.337 97.668,105.478 97.668,108.114L97.668,117.666C97.668,120.302 104.994,122.443 114.016,122.443L155.241,122.443C164.264,122.443 171.589,120.302 171.589,117.666L171.589,108.114Z" style="fill:white;"/>
        </g>
        <g transform="matrix(0.195652,0,0,0.64486,104.766,-26.6943)">
            <path d="M171.589,108.114C171.589,105.478 164.535,103.337 155.847,103.337L113.411,103.337C104.722,103.337 97.668,105.478 97.668,108.114L97.668,117.666C97.668,120.302 104.722,122.443 113.411,122.443L155.847,122.443C164.535,122.443 171.589,120.302 171.589,117.666L171.589,108.114Z" style="fill:white;"/>
        </g>
        <g transform="matrix(0.195652,0,0,0.64486,47.766,-26.6943)">
            <path d="M171.589,108.114C171.589,105.478 164.535,103.337 155.847,103.337L113.411,103.337C104.722,103.337 97.668,105.478 97.668,108.114L97.668,117.666C97.668,120.302 104.722,122.443 113.411,122.443L155.847,122.443C164.535,122.443 171.589,120.302 171.589,117.666L171.589,108.114Z" style="fill:white;"/>
        </g>
        <g transform="matrix(0.195652,0,0,0.64486,28.766,-26.6943)">
            <path d="M171.589,108.114C171.589,105.478 164.535,103.337 155.847,103.337L113.411,103.337C104.722,103.337 97.668,105.478 97.668,108.114L97.668,117.666C97.668,120.302 104.722,122.443 113.411,122.443L155.847,122.443C164.535,122.443 171.589,120.302 171.589,117.666L171.589,108.114Z" style="fill:white;"/>
        </g>
        <g transform="matrix(0.190821,0,0,0.64486,77.2378,-9.69428)">
            <path d="M171.589,108.114C171.589,105.478 164.357,103.337 155.448,103.337L113.809,103.337C104.901,103.337 97.668,105.478 97.668,108.114L97.668,117.666C97.668,120.302 104.901,122.443 113.809,122.443L155.448,122.443C164.357,122.443 171.589,120.302 171.589,117.666L171.589,108.114Z" style="fill:white;"/>
        </g>
        <g transform="matrix(0.18599,0,0,0.64486,136.103,-9.69428)">
            <path d="M171.589,108.114C171.589,105.478 164.169,103.337 155.029,103.337L114.229,103.337C105.089,103.337 97.668,105.478 97.668,108.114L97.668,117.666C97.668,120.302 105.089,122.443 114.229,122.443L155.029,122.443C164.169,122.443 171.589,120.302 171.589,117.666L171.589,108.114Z" style="fill:white;"/>
        </g>
        <g transform="matrix(0.18599,0,0,0.64486,155.103,-9.69428)">
            <path d="M171.589,108.114C171.589,105.478 164.169,103.337 155.029,103.337L114.229,103.337C105.089,103.337 97.668,105.478 97.668,108.114L97.668,117.666C97.668,120.302 105.089,122.443 114.229,122.443L155.029,122.443C164.169,122.443 171.589,120.302 171.589,117.666L171.589,108.114Z" style="fill:white;"/>
        </g>
        <g transform="matrix(0.188406,0,0,0.64486,96.4737,-9.69428)">
            <path d="M171.589,108.114C171.589,105.478 164.264,103.337 155.241,103.337L114.016,103.337C104.994,103.337 97.668,105.478 97.668,108.114L97.668,117.666C97.668,120.302 104.994,122.443 114.016,122.443L155.241,122.443C164.264,122.443 171.589,120.302 171.589,117.666L171.589,108.114Z" style="fill:white;"/>
        </g>
        <g transform="matrix(0.195652,0,0,0.64486,114.766,-9.69428)">
            <path d="M171.589,108.114C171.589,105.478 164.535,103.337 155.847,103.337L113.411,103.337C104.722,103.337 97.668,105.478 97.668,108.114L97.668,117.666C97.668,120.302 104.722,122.443 113.411,122.443L155.847,122.443C164.535,122.443 171.589,120.302 171.589,117.666L171.589,108.114Z" style="fill:white;"/>
        </g>
        <g transform="matrix(0.195652,0,0,0.64486,57.766,-9.69428)">
            <path d="M171.589,108.114C171.589,105.478 164.535,103.337 155.847,103.337L113.411,103.337C104.722,103.337 97.668,105.478 97.668,108.114L97.668,117.666C97.668,120.302 104.722,122.443 113.411,122.443L155.847,122.443C164.535,122.443 171.589,120.302 171.589,117.666L171.589,108.114Z" style="fill:white;"/>
        </g>
        <g transform="matrix(0.338164,0,0,0.64486,14.3124,-9.69428)">
            <path d="M171.589,108.114C171.589,105.478 167.508,103.337 162.481,103.337L106.776,103.337C101.75,103.337 97.668,105.478 97.668,108.114L97.668,117.666C97.668,120.302 101.75,122.443 106.776,122.443L162.481,122.443C167.508,122.443 171.589,120.302 171.589,117.666L171.589,108.114Z" style="fill:white;"/>
        </g>
    </g>
    <g id="Circle" transform="matrix(1,0,0,1,8.92764,23.7475)">
        <g transform="matrix(0.705593,0.708618,0.481932,-0.479875,71.8213,75.959)">
            <path d="M126.549,63.609L145.52,109.364L125.82,98.303L107.578,109.364L126.549,63.609Z" style="fill:rgb(0,205,255);"/>
        </g>
        <g transform="matrix(1,0,0,1,109.988,-27.3186)">
            <path d="M72.939,70.484C96.146,70.484 114.988,89.165 114.988,112.176C114.988,125.05 109.09,136.569 99.829,144.219" style="fill:none;stroke:rgb(0,205,255);stroke-width:7.9px;"/>
        </g>
        <g transform="matrix(1,0,0,1,109.988,-27.3186)">
            <path d="M30.89,112.176C30.89,89.165 49.731,70.484 72.939,70.484" style="fill:none;stroke:rgb(0,205,255);stroke-width:7.9px;"/>
        </g>
    </g>
</svg>
